<svg xmlns="http://www.w3.org/2000/svg" aria-hidden="true" style="position:absolute;width:0;height:0;overflow:hidden"><defs><symbol id="icon-teymaxSVG" viewBox="0 0 32 32"><path fill="#fff" d="m5.492 13.248 2.621-2.621 2.621 2.621-2.621 2.621-2.621-2.621z" style="fill:var(--color1, #fff)"/><path fill="#fff" d="m8.112 15.869 2.621-2.621 2.621 2.621-2.621 2.621-2.621-2.621z" style="fill:var(--color1, #fff)"/><path fill="#fff" d="m10.733 18.489 2.621-2.621 2.621 2.621-2.621 2.621-2.621-2.621zM8.112 10.627l2.621-2.621 2.621 2.621-2.621 2.621-2.621-2.621z" style="fill:var(--color1, #fff)"/><path fill="#fff" d="m10.733 8.007 2.621-2.621 2.621 2.621-2.621 2.621-2.621-2.621z" style="fill:var(--color1, #fff)"/><path fill="#fff" d="m13.354 5.386 2.621-2.621 2.621 2.621-2.621 2.621-2.621-2.621z" style="fill:var(--color1, #fff)"/><path fill="#fff" d="M15.974 2.765 18.595.144l2.621 2.621-2.621 2.621-2.621-2.621zM26.457 18.489l-2.621 2.621-2.621-2.621 2.621-2.621 2.621 2.621z" style="fill:var(--color1, #fff)"/><path fill="#fff" d="m23.836 15.869-2.621 2.621-2.621-2.621 2.621-2.621 2.621 2.621z" style="fill:var(--color1, #fff)"/><path fill="#fff" d="m21.216 13.248-2.621 2.621-2.621-2.621 2.621-2.621 2.621 2.621zM23.836 21.11l-2.621 2.621-2.621-2.621 2.621-2.621 2.621 2.621z" style="fill:var(--color1, #fff)"/><path fill="#fff" d="m21.216 23.731-2.621 2.621-2.621-2.621 2.621-2.621 2.621 2.621z" style="fill:var(--color1, #fff)"/><path fill="#fff" d="m18.595 26.351-2.621 2.621-2.621-2.621 2.621-2.621 2.621 2.621zM15.974 28.972l-2.621 2.621-2.621-2.621 2.621-2.621 2.621 2.621z" style="fill:var(--color1, #fff)"/></symbol><symbol id="icon-clutchfooter" viewBox="0 0 31 32"><path fill="#e0f300" d="M16.384 20.352a4.257 4.257 0 1 0-.001-8.513 4.257 4.257 0 0 0 .001 8.513z" style="fill:var(--color2, #e0f300)"/><path fill="#e0f300" d="M21.44 21.376c-1.28 1.152-2.976 1.792-4.832 1.792a6.914 6.914 0 0 1-6.627-4.376 6.907 6.907 0 0 1-.477-2.76c0-4.128 2.912-7.008 7.104-7.008 1.824 0 3.552.608 4.864 1.76l.896.768 3.968-3.968-.992-.896a12.992 12.992 0 0 0-8.736-3.296C9.248 3.392 3.904 8.704 3.904 16a12.479 12.479 0 0 0 12.705 12.768c3.36 0 6.496-1.184 8.8-3.328l.96-.896-4.032-3.968-.896.8z" style="fill:var(--color2, #e0f300)"/></symbol><symbol id="icon-upwrk" viewBox="0 0 31 32"><path fill="#e0f300" d="M23.526 15.898c0 1.69-1.126 2.842-2.573 2.842-1.587 0-2.637-1.229-2.931-1.715.371-3.008 1.472-3.968 2.931-3.968s2.573 1.152 2.573 2.842z" style="fill:var(--color2, #e0f300)"/><path fill="#e0f300" d="M24.371 6.963C22.054 4.646 18.854 3.2 15.334 3.2 8.281 3.2 2.56 8.922 2.56 15.974c0 3.52 1.434 6.72 3.763 9.037 2.317 2.317 5.517 3.763 9.037 3.763s6.72-1.434 9.037-3.738c2.304-2.317 3.738-5.517 3.738-9.037s-1.434-6.72-3.763-9.037zm-3.417 13.619s-.128-.013-.192-.013a4.617 4.617 0 0 1-2.342-.717 5.845 5.845 0 0 1-.755-.538l-.73 4.48h-2.112l1.114-6.323c-1.19-1.664-1.805-3.558-2.061-4.544v2.995c0 2.739-1.741 4.659-4.237 4.659-1.254 0-2.342-.461-3.136-1.331-.768-.845-1.19-2.022-1.19-3.328v-4.454h2.074l-.026 4.454c0 1.626.832 2.816 2.278 2.816s2.176-1.19 2.176-2.816v-4.454h3.584c.282 1.101.627 2.278 1.101 3.174.41-1.741 1.869-3.443 4.454-3.443s4.621 2.01 4.621 4.698c0 2.688-2.048 4.685-4.621 4.685z" style="fill:var(--color2, #e0f300)"/></symbol><symbol id="icon-skype" viewBox="0 0 31 32"><path fill="#e0f300" d="M17.038 26.752c-.547.084-1.107.128-1.677.128-6.009 0-10.88-4.871-10.88-10.88 0-.57.044-1.13.128-1.677a6.72 6.72 0 0 1 9.075-9.075 10.897 10.897 0 0 1 1.677-.128c6.009 0 10.88 4.871 10.88 10.88 0 .57-.044 1.13-.128 1.677a6.72 6.72 0 0 1-9.075 9.075zm-1.61-4.153-.052.001c3.677 0 5.508-1.774 5.508-4.151 0-1.534-.706-3.163-3.488-3.786l-2.538-.563c-.967-.22-2.076-.513-2.076-1.428s.792-1.552 2.206-1.552c2.855 0 2.594 1.956 4.008 1.956.736 0 1.399-.438 1.399-1.19 0-1.753-2.813-3.071-5.191-3.071-2.588 0-5.342 1.098-5.342 4.023 0 1.406.503 2.906 3.276 3.601l3.442.859c1.044.258 1.303.843 1.303 1.372 0 .879-.875 1.738-2.455 1.738-3.094 0-2.661-2.378-4.319-2.378-.743 0-1.283.51-1.283 1.244 0 1.426 1.73 3.325 5.602 3.325z" style="fill:var(--color2, #e0f300)"/></symbol><symbol id="icon-linked" viewBox="0 0 31 32"><path fill="#e0f300" d="M8.884 7.04a2.561 2.561 0 1 1-4.903-1.033 2.56 2.56 0 0 1 4.902 1.034zm.077 4.454h-5.12V27.52h5.12V11.494zm8.089 0h-5.094V27.52h5.043v-8.41c0-4.685 6.106-5.12 6.106 0v8.41h5.056V17.37c0-7.898-9.037-7.603-11.162-3.725l.051-2.15z" style="fill:var(--color2, #e0f300)"/></symbol><symbol id="icon-faceb" viewBox="0 0 31 32"><path fill="#e0f300" d="M15.361 3.2c-7.069 0-12.8 5.731-12.8 12.8 0 6.389 4.681 11.684 10.8 12.644V19.7h-3.25V16h3.25v-2.82c0-3.208 1.911-4.98 4.835-4.98 1.4 0 2.865.25 2.865.25v3.15h-1.614c-1.59 0-2.086.987-2.086 1.999V16h3.55l-.567 3.7h-2.983v8.944c6.119-.96 10.8-6.256 10.8-12.644 0-7.069-5.731-12.8-12.8-12.8z" style="fill:var(--color2, #e0f300)"/></symbol><symbol id="icon-inst" viewBox="0 0 31 32"><path fill="#e0f300" d="M15.361 12.16a3.84 3.84 0 1 0 0 7.68 3.84 3.84 0 0 0 0-7.68zm0-2.56a6.4 6.4 0 1 1 0 12.8 6.4 6.4 0 0 1 0-12.8zm8.32-.321c0 .883-.718 1.6-1.6 1.6-.883 0-1.6-.718-1.6-1.6s.718-1.599 1.6-1.599c.881-.001 1.6.717 1.6 1.599zm-8.32-3.519c-3.167 0-3.684.008-5.157.074-1.004.047-1.676.182-2.302.425a3.705 3.705 0 0 0-1.383.9 3.7 3.7 0 0 0-.9 1.384c-.243.627-.378 1.298-.424 2.301-.066 1.413-.074 1.907-.074 5.157 0 3.167.008 3.684.074 5.157.047 1.003.182 1.677.424 2.301.216.556.474.958.899 1.383.43.43.831.687 1.382.9.633.245 1.305.38 2.304.426 1.413.066 1.907.074 5.157.074 3.167 0 3.684-.008 5.157-.074 1.001-.047 1.675-.183 2.301-.424a3.72 3.72 0 0 0 1.383-.899c.43-.431.688-.831.9-1.383.244-.63.379-1.304.426-2.303.066-1.413.074-1.907.074-5.157 0-3.167-.008-3.684-.074-5.157-.047-1.001-.183-1.677-.425-2.302a3.721 3.721 0 0 0-.9-1.383 3.688 3.688 0 0 0-1.384-.9c-.626-.243-1.299-.378-2.301-.424-1.413-.066-1.907-.074-5.157-.074zm0-2.56c3.477 0 3.911.013 5.277.077 1.362.063 2.291.278 3.107.595a6.24 6.24 0 0 1 2.268 1.476 6.275 6.275 0 0 1 1.476 2.268c.316.815.531 1.745.595 3.107.061 1.365.077 1.799.077 5.277s-.013 3.911-.077 5.277c-.063 1.362-.28 2.291-.595 3.107a6.254 6.254 0 0 1-1.476 2.268 6.283 6.283 0 0 1-2.268 1.476c-.816.316-1.745.531-3.107.595-1.365.061-1.8.077-5.277.077s-3.912-.013-5.277-.077c-1.362-.063-2.29-.279-3.107-.595a6.262 6.262 0 0 1-2.268-1.476 6.279 6.279 0 0 1-1.476-2.268c-.317-.816-.531-1.745-.595-3.107-.061-1.365-.077-1.799-.077-5.277s.013-3.911.077-5.277c.063-1.363.278-2.291.595-3.107.325-.843.765-1.556 1.476-2.268s1.426-1.15 2.268-1.476c.816-.317 1.744-.531 3.107-.595 1.365-.061 1.799-.077 5.277-.077z" style="fill:var(--color2, #e0f300)"/></symbol><symbol id="icon-arrowRight" viewBox="0 0 32 32"><path d="m17.562 16.001-6.6-6.6 1.886-1.886L21.333 16l-8.485 8.485-1.886-1.886 6.6-6.6z"/></symbol><symbol id="icon-arrowLeft" viewBox="0 0 32 32"><path d="m14.438 16.001 6.6-6.6-1.886-1.886L10.667 16l8.485 8.485 1.886-1.886-6.6-6.6z"/></symbol><symbol id="icon-upwork" viewBox="0 0 117 32"><path fill="#fff" d="M32.269 21.783c-1.197-.067-2.36-.419-3.393-1.027s-1.903-1.456-2.539-2.47c.767-6.103 3-8 5.955-8s5.199 2.286 5.199 5.714c0 3.429-2.29 5.714-5.199 5.714zm.023-15.314c-2.085-.084-4.133.565-5.787 1.836s-2.807 3.08-3.26 5.113a29.68 29.68 0 0 1-2.21-6.423h-7.294v9.029c0 3.28-1.489 5.714-4.409 5.714s-4.58-2.423-4.58-5.714V6.995H.561v9.029a9.828 9.828 0 0 0 2.416 6.834 8.319 8.319 0 0 0 6.343 2.686c5.05 0 8.588-3.874 8.588-9.417v-6.103a29.542 29.542 0 0 0 4.191 9.2l-2.244 12.777h4.26l1.477-9.051c.489.42 1.01.802 1.557 1.143a9.54 9.54 0 0 0 4.741 1.463h.389a9.295 9.295 0 0 0 6.726-2.782 9.24 9.24 0 0 0 2.641-6.771 9.285 9.285 0 0 0-5.745-8.794 9.318 9.318 0 0 0-3.634-.703zM92.524 8.983v-1.92h-4.122v17.863h4.18v-6.994c0-4.309.389-7.406 6.184-7.006V6.857c-2.702-.206-4.809.354-6.241 2.137zM63.564 7.052l-3.023 12.503-3.229-12.503h-5.313L48.77 19.555 45.747 7.052h-4.225l4.638 17.886h5.016l3.481-12.697 3.447 12.697h5.016l4.901-17.886h-4.454zM77.203 21.794c-2.966 0-5.187-2.343-5.187-5.714s2.29-5.714 5.187-5.714c2.897 0 5.244 2.206 5.244 5.634s-2.29 5.714-5.199 5.714zm.045-15.337A9.274 9.274 0 0 0 67.847 16a9.346 9.346 0 0 0 5.701 8.933 9.372 9.372 0 0 0 7.32 0 9.346 9.346 0 0 0 3.078-2.112A9.345 9.345 0 0 0 86.569 16a9.25 9.25 0 0 0-2.665-6.731 9.29 9.29 0 0 0-6.701-2.766zM104.742 16.149h.962l5.828 8.788h4.706l-6.699-9.749c1.611-.663 2.988-1.79 3.955-3.237s1.48-3.149 1.473-4.888h-4.157c0 3.851-3.046 5.314-6.069 5.314V0h-4.18v24.937h4.168l.011-8.788z" style="fill:var(--color1, #fff)"/></symbol><symbol id="icon-clutch" viewBox="0 0 114 32"><path fill="#e62415" d="M83.965 24.654a3.701 3.701 0 1 0 0-7.402 3.701 3.701 0 0 0 0 7.402z" style="fill:var(--color3, #e62415)"/><path fill="#fff" d="M30.094 0h4.897v31.583h-4.897V0zm22.734 21.844c0 4.897-4.007 5.287-5.231 5.287-3.061 0-3.506-2.866-3.506-4.591V10.324h-4.925v12.188c-.028 3.033.835 5.537 2.504 7.207a8.928 8.928 0 0 0 11.158.584v1.28h4.925V10.324h-4.925v11.52zM68.383 3.172h-4.925v7.151h-3.423v4.647h3.423v16.612h4.925V14.97h4.035v-4.647h-4.035V3.172zm19.979 22.372c-1.113 1.002-2.588 1.558-4.202 1.558a6.016 6.016 0 0 1-5.763-3.806 6.002 6.002 0 0 1-.415-2.4c0-3.59 2.532-6.094 6.177-6.094 1.586 0 3.089.529 4.23 1.53l.779.668 3.451-3.45-.863-.779a11.295 11.295 0 0 0-7.596-2.866c-6.4 0-11.047 4.619-11.047 10.964a10.86 10.86 0 0 0 3.156 7.907 10.852 10.852 0 0 0 7.891 3.196c2.922 0 5.649-1.03 7.652-2.894l.835-.779-3.506-3.451-.779.696zm22.734-13.356a8.928 8.928 0 0 0-11.158-.584V.001h-4.925v31.583h4.925V20.092c0-4.897 4.007-5.287 5.231-5.287 3.061 0 3.506 2.866 3.506 4.591v12.216h4.925V19.396a10.018 10.018 0 0 0-2.504-7.207zM22.831 24.014a10.22 10.22 0 0 1-7.374 3.089c-5.704 0-9.85-4.48-9.85-10.629 0-6.177 4.146-10.657 9.85-10.657 2.755 0 5.37 1.085 7.346 3.061l.779.779 3.423-3.423-.751-.779A15.08 15.08 0 0 0 15.43.947C7.054.947.71 7.625.71 16.502c0 8.821 6.344 15.499 14.72 15.499 4.146 0 7.986-1.614 10.824-4.536l.751-.779-3.395-3.478-.779.807z" style="fill:var(--color1, #fff)"/></symbol><symbol id="icon-yellowElipse" viewBox="0 0 28 32"><path fill="#e0f300" d="M28.444 16c0 7.855-6.367 14.222-14.222 14.222S0 23.855 0 16C0 8.145 6.367 1.778 14.222 1.778S28.444 8.145 28.444 16z" style="fill:var(--color2, #e0f300)"/></symbol><symbol id="icon-close-modal-icon" viewBox="0 0 32 32"><path d="M19.798 16.001 31.683 4.117a1.08 1.08 0 0 0 0-1.527L29.412.318a1.08 1.08 0 0 0-1.526 0L16.001 12.203 4.116.318a1.08 1.08 0 0 0-1.526 0L.319 2.59a1.08 1.08 0 0 0 0 1.527l11.885 11.885L.32 27.885a1.08 1.08 0 0 0 0 1.527l2.272 2.272a1.08 1.08 0 0 0 1.526 0L16.002 19.8l11.884 11.884a1.08 1.08 0 0 0 1.526 0l2.272-2.272a1.08 1.08 0 0 0 0-1.527L19.8 16.002z"/></symbol><symbol id="icon-checkboxClicked" viewBox="0 0 32 32"><path fill="#404bbf" d="M4 1h24a3 3 0 0 1 3 3v24a3 3 0 0 1-3 3H4a3 3 0 0 1-3-3V4a3 3 0 0 1 3-3z" style="fill:var(--color4, #404bbf)"/><path fill="none" stroke="#404bbf" stroke-width="2" d="M4 1h24a3 3 0 0 1 3 3v24a3 3 0 0 1-3 3H4a3 3 0 0 1-3-3V4a3 3 0 0 1 3-3z" style="stroke:var(--color4, #404bbf)"/><path fill="#f4f4fd" d="M22.891 8.51a1.832 1.832 0 0 1 2.558.02 1.855 1.855 0 0 1 .068 2.571L15.728 23.41a1.845 1.845 0 0 1-1.314.591 1.83 1.83 0 0 1-1.336-.542l-6.492-6.527a1.863 1.863 0 0 1-.451-2.046 1.85 1.85 0 0 1 1.017-1.022 1.823 1.823 0 0 1 1.438.026c.225.101.429.247.597.429l5.137 5.163 8.521-10.915a.628.628 0 0 1 .049-.054h-.002z" style="fill:var(--color5, #f4f4fd)"/></symbol><symbol id="icon-modalHamburger" viewBox="0 0 47 32"><path stroke-linecap="round" stroke-linejoin="round" stroke-width="4.364" d="M1.96 29.154h42.965M1.96 15.615h42.965M1.96 2.077h42.965"/></symbol><symbol id="icon-modalEmail" viewBox="0 0 43 32"><path d="M37.333 0h-32c-2.2 0-3.98 1.8-3.98 4l-.02 24c0 2.2 1.8 4 4 4h32c2.2 0 4-1.8 4-4V4c0-2.2-1.8-4-4-4zm-.8 8.5-14.14 8.84c-.64.4-1.48.4-2.12 0L6.133 8.5c-.5-.32-.8-.86-.8-1.44 0-1.34 1.46-2.14 2.6-1.44l13.4 8.38 13.4-8.38c1.14-.7 2.6.1 2.6 1.44 0 .58-.3 1.12-.8 1.44z"/></symbol><symbol id="icon-modalPhone" viewBox="0 0 32 32"><path d="m28.865 21.822-4.525-.517a3.543 3.543 0 0 0-2.921 1.015l-3.278 3.278A26.8 26.8 0 0 1 6.402 13.859l3.296-3.296a3.545 3.545 0 0 0 1.015-2.921l-.517-4.489A3.566 3.566 0 0 0 6.651 0H3.569C1.556 0-.118 1.675.006 3.687.95 18.9 13.117 31.049 28.312 31.993c2.013.125 3.687-1.55 3.687-3.563v-3.082c.018-1.799-1.336-3.313-3.135-3.527z"/></symbol><symbol id="icon-modalName" viewBox="0 0 32 32"><path d="M16 16c2.947 0 5.333-2.387 5.333-5.333S18.946 5.334 16 5.334c-2.947 0-5.333 2.387-5.333 5.333S13.054 16 16 16zm0 2.667c-3.56 0-10.667 1.787-10.667 5.333v1.333c0 .733.6 1.333 1.333 1.333h18.667c.733 0 1.333-.6 1.333-1.333V24c0-3.547-7.107-5.333-10.667-5.333z"/></symbol></defs></svg>